<svg xmlns="http://www.w3.org/2000/svg" width="24" height="24" viewBox="0 0 24 24" fill="none">
  <path d="M15.9453 11.9141C15.9453 12.1797 15.8516 12.4062 15.6406 12.6094L9.54688 18.5703C9.375 18.7422 9.16406 18.8281 8.91406 18.8281C8.40625 18.8281 8 18.4375 8 17.9219C8 17.6719 8.10938 17.4453 8.27344 17.2734L13.7734 11.9141L8.27344 6.55469C8.10156 6.375 8 6.14844 8 5.89844C8 5.39062 8.40625 5 8.91406 5C9.16406 5 9.375 5.08594 9.54688 5.25781L15.6406 11.2188C15.8438 11.4219 15.9453 11.6484 15.9453 11.9141Z" fill="currentColor" />
</svg>