<svg xmlns="http://www.w3.org/2000/svg" width="24" height="24" viewBox="0 0 24 24" fill="none">
  <path d="M11.9727 15.8867C11.707 15.8867 11.4805 15.793 11.2773 15.582L5.31641 9.48828C5.14453 9.31641 5.05859 9.10547 5.05859 8.85547C5.05859 8.34766 5.44922 7.94141 5.96484 7.94141C6.21484 7.94141 6.44141 8.05078 6.61328 8.21484L11.9727 13.7148L17.332 8.21484C17.5117 8.04297 17.7383 7.94141 17.9883 7.94141C18.4961 7.94141 18.8867 8.34766 18.8867 8.85547C18.8867 9.10547 18.8008 9.31641 18.6289 9.48828L12.668 15.582C12.4648 15.7852 12.2383 15.8867 11.9727 15.8867Z" fill="currentColor" />
</svg>

