<svg width="24" height="24" viewBox="0 0 24 24" fill="none" xmlns="http://www.w3.org/2000/svg">
<path d="M4 10.3594C4 9.48438 4.16406 8.66406 4.49219 7.89844C4.82552 7.1276 5.28385 6.45052 5.86719 5.86719C6.45052 5.27865 7.125 4.82031 7.89062 4.49219C8.66146 4.16406 9.48438 4 10.3594 4C11.2396 4 12.0625 4.16406 12.8281 4.49219C13.599 4.82031 14.276 5.27865 14.8594 5.86719C15.4427 6.45052 15.8984 7.1276 16.2266 7.89844C16.5599 8.66406 16.7266 9.48438 16.7266 10.3594C16.7266 11.0469 16.6198 11.7005 16.4062 12.3203C16.1979 12.9401 15.9089 13.5052 15.5391 14.0156L19.1016 17.5938C19.2109 17.6979 19.2917 17.8203 19.3438 17.9609C19.401 18.1016 19.4297 18.25 19.4297 18.4062C19.4297 18.625 19.3802 18.8229 19.2812 19C19.1823 19.1771 19.0469 19.3151 18.875 19.4141C18.7031 19.5182 18.5052 19.5703 18.2812 19.5703C18.125 19.5703 17.974 19.5417 17.8281 19.4844C17.6875 19.4323 17.5599 19.349 17.4453 19.2344L13.8594 15.6484C13.3594 15.9818 12.8125 16.2448 12.2188 16.4375C11.6302 16.625 11.0104 16.7188 10.3594 16.7188C9.48438 16.7188 8.66146 16.5547 7.89062 16.2266C7.125 15.8984 6.45052 15.4427 5.86719 14.8594C5.28385 14.276 4.82552 13.6016 4.49219 12.8359C4.16406 12.0651 4 11.2396 4 10.3594ZM5.63281 10.3594C5.63281 11.0156 5.7526 11.6302 5.99219 12.2031C6.23698 12.7708 6.57552 13.2708 7.00781 13.7031C7.44531 14.1354 7.95052 14.4766 8.52344 14.7266C9.09635 14.9714 9.70833 15.0938 10.3594 15.0938C11.0156 15.0938 11.6276 14.9714 12.1953 14.7266C12.7682 14.4766 13.2708 14.1354 13.7031 13.7031C14.1354 13.2708 14.474 12.7708 14.7188 12.2031C14.9688 11.6302 15.0938 11.0156 15.0938 10.3594C15.0938 9.70833 14.9688 9.09635 14.7188 8.52344C14.474 7.95052 14.1354 7.44792 13.7031 7.01562C13.2708 6.57812 12.7682 6.23958 12.1953 6C11.6276 5.75521 11.0156 5.63281 10.3594 5.63281C9.70833 5.63281 9.09635 5.75521 8.52344 6C7.95052 6.23958 7.44531 6.57812 7.00781 7.01562C6.57552 7.44792 6.23698 7.95052 5.99219 8.52344C5.7526 9.09635 5.63281 9.70833 5.63281 10.3594Z" fill="black"/>
</svg>
