<svg width="23" height="25" viewBox="0 0 23 25" fill="none" xmlns="http://www.w3.org/2000/svg">
<path d="M11.0703 20.1406C6.61719 20.1406 3 16.5234 3 12.0703C3 7.61719 6.61719 4 11.0703 4C15.5234 4 19.1406 7.61719 19.1406 12.0703C19.1406 16.5234 15.5234 20.1406 11.0703 20.1406ZM11.0703 14.7656C13.2969 14.7656 15.0078 15.5547 15.8359 16.4688C16.8984 15.3125 17.5547 13.7656 17.5547 12.0703C17.5547 8.48438 14.6562 5.58594 11.0703 5.58594C7.48438 5.58594 4.58594 8.48438 4.58594 12.0703C4.58594 13.7656 5.24219 15.3125 6.30469 16.4688C7.13281 15.5547 8.85156 14.7656 11.0703 14.7656ZM11.0703 13.4844C9.5625 13.4688 8.39062 12.2031 8.38281 10.5234C8.375 8.94531 9.57031 7.63281 11.0703 7.63281C12.5781 7.63281 13.7578 8.94531 13.7578 10.5234C13.7578 12.2031 12.5859 13.4922 11.0703 13.4844Z" fill="black"/>
</svg>
